<?xml version="1.0" encoding="UTF-8"?>
<svg id="Capa_1" xmlns="http://www.w3.org/2000/svg" version="1.1" viewBox="0 0 72.7647 60">
  <!-- Generator: Adobe Illustrator 29.4.0, SVG Export Plug-In . SVG Version: 2.1.0 Build 152)  -->
  <path id="box" d="M72.5476,38.2374c0,12.1728-9.8681,22.0408-22.0408,22.0408H17.4454c-3.3813,0-6.1225-2.7411-6.1225-6.1225V12.5231C11.323,5.7604,16.8052.2782,23.5679.2782h42.8572c3.3814,0,6.1225,2.7411,6.1225,6.1225v31.8368Z" fill="#019b67"/>
  <path id="heart" d="M51.2135,19.3682c1.198-1.1652,1.942-2.743,1.942-4.5029,0-1.69-.6975-3.3108-1.939-4.5058s-2.9254-1.8663-4.6812-1.8663c-2.2068,0-4.1613,1.0317-5.3593,2.6338-.6115-.8174-1.4166-1.4828-2.3487-1.9408-.9321-.4581-1.9641-.6955-3.0106-.6929-1.7558,0-3.4397.6713-4.6812,1.8663-1.2415,1.195-1.939,2.8157-1.939,4.5058,0,1.7599.744,3.3377,1.9419,4.5029l10.0376,9.6613,10.0376-9.6613ZM32.021,18.5064c-.4986-.4767-.8936-1.0441-1.1621-1.6693-.2684-.6251-.405-1.2954-.4016-1.9719,0-1.3681.5646-2.6801,1.5697-3.6475,1.005-.9674,2.3682-1.5108,3.7895-1.5108,1.9924,0,3.7326,1.0438,4.6531,2.5974h1.4123c.468-.79,1.1451-1.4467,1.9625-1.903.8174-.4562,1.7457-.6958,2.6906-.6944,1.4214,0,2.7845.5434,3.7896,1.5108,1.005.9674,1.5697,2.2794,1.5697,3.6475,0,1.42-.6305,2.7309-1.5636,3.6411l-9.1549,8.7996-9.1549-8.7996Z" fill="#fff"/>
  <path id="hand_x5F_negative" d="M39.63,33.4011c.937.9371,1.4636,2.208,1.4636,3.5331v.4768l-.4395.1851-16.2579,6.8454-.1337.0563h-12.9613v-1.4363h12.6713l15.6396-6.585c-.101-.7743-.4393-1.5015-.9976-2.0598-.6677-.6676-1.5732-1.0427-2.5175-1.0427h-.2442c-1.0997.0008-2.1885.2187-3.2037.6414h0s-6.5441,2.726-6.5441,2.726l-.1325.0552h-12.1232v-1.4363h5.9897c1.1713,0,2.2945-.4653,3.1226-1.2934.8281-.8282,1.2934-1.9514,1.2934-3.1226v-.1376h-12.9539v-1.4363h14.3902v1.5739c0,1.5521-.6166,3.0407-1.7141,4.1381-.1043.1043-.2278.1823-.3388.2778h2.0468l6.4117-2.671h.0001c1.1899-.4954,2.4659-.7509,3.7548-.7518h.2452c1.3251,0,2.5961.5264,3.5331,1.4634Z" fill="#fff"/>
  <path id="hand_x5F_positive" d="M11.3241,44.5009H.1654v-1.4363h11.1588v1.4363ZM5.2995,29.3737v1.4363h.0665c-.1564,1.1315-.6561,2.1927-1.473,3.0095-.9886.9886-2.3294,1.544-3.7275,1.544v1.4363c1.7791,0,3.4852-.7067,4.7432-1.9647,1.0862-1.0863,1.7296-2.5123,1.8936-4.0252h4.5219v-1.4363h-6.0247Z" fill="#019b67"/>
</svg>