<?xml version="1.0" encoding="UTF-8"?>
<svg id="Capa_1" xmlns="http://www.w3.org/2000/svg" version="1.1" viewBox="0 0 69.5 60">
  <!-- Generator: Adobe Illustrator 29.4.0, SVG Export Plug-In . SVG Version: 2.1.0 Build 152)  -->
  <path id="box" d="M69.1759,37.7828c0,12.1728-9.8681,22.0408-22.0408,22.0408H14.0738c-3.3813,0-6.1225-2.7411-6.1225-6.1225V12.0684C7.9513,5.3057,13.4336-.1765,20.1962-.1765h42.8572c3.3814,0,6.1225,2.7411,6.1225,6.1225v31.8368Z" fill="#8bdc64"/>
  <path id="hands" d="M25.1313,27.6401c.281.1531.598.248.94.248.5298,0,1.0276-.2061,1.4016-.5802.3741-.3731.5802-.8712.5802-1.4016v-.0039c.278.149.5911.2417.9282.2417h0c.5303.0001,1.0281-.2061,1.4021-.5801.3738-.3745.5795-.8723.5795-1.402l-.0003-10.8846c0-4.211-3.1594-7.6368-7.0427-7.6368-2.9904,0-5.47,1.7562-6.4713,4.5833-.0458.1293-.0937.258-.1495.3833-.0583.1314-.127.2853-.1511.3385-.2025.3531-3.5232,6.1036-3.5235,6.1036-.2392.413-.3031.8948-.1795,1.3557.123.4605.419.8454.8326,1.0852.3322.1903.7073.29,1.0869.29.7792,0,1.5028-.4176,1.8893-1.0902l1.015-1.7584v8.9137c0,1.0753.8114,1.9706,1.8475,2.0385.38.0244.7485-.0679,1.0743-.244.0616,1.0377.917,1.8656,1.9702,1.8656.5301,0,1.0279-.2061,1.402-.5801.346-.3464.54-.7999.5683-1.2852ZM24.0896,18.7928v8.7313c0,.2487-.0963.4822-.2711.6574-.1752.1748-.4087.2711-.6574.2711-.5119,0-.9285-.4167-.9285-.9285l.0004-8.7313c0-.2912-.2358-.5268-.5268-.5268s-.5267.2358-.5267.5268v7.1142c0,.249-.0963.482-.2712.6567-.1923.192-.4483.284-.7227.2695-.4761-.0313-.8632-.4742-.8632-.9876v-10.8778c0-.2382-.16-.447-.3903-.5087-.2316-.0626-.473.0386-.5924.2448l-1.9986,3.4602c-.2982.5194-1.0147.7135-1.5378.4129-.1685-.0972-.2903-.2563-.3411-.4449-.0501-.1887-.0241-.386.0742-.5558,2.3924-4.1423,3.1979-5.5372,3.469-6.0488l.0073.0063q.0548-.0626.249-.4984c.067-.1505.1244-.3048.1794-.4592.8613-2.4309,2.9094-3.8824,5.479-3.8824h-.0001c3.3029.0001,5.9898,2.954,5.9898,6.584l-.0003,10.8846c0,.2488-.096.4823-.2714.6578-.1748.1745-.4077.2711-.6567.2711-.5116,0-.9282-.4165-.9282-.9289l.0007-5.37c0-.2913-.2358-.5268-.5268-.5268-.2913,0-.5268.2359-.5268.5268v7.1143c0,.249-.0963.4819-.2712.6564-.1761.1755-.409.2722-.6574.2722-.5123,0-.9289-.4166-.9289-.9282v-.0818l.0004-7.0324c0-.2913-.2358-.5268-.5268-.5268-.2912,0-.5268.2358-.5268.5268ZM21.011,37.4819l.0026-.0017c.4545-.2728.7755-.7056.9038-1.2185.128-.5136.0485-1.046-.224-1.5006-.1722-.2877-.4143-.5136-.695-.6791.4015-.2741.6901-.6736.8085-1.1483.1284-.5129.0488-1.0456-.2236-1.5001-.2722-.4539-.7049-.7748-1.2185-.9032-.1603-.0399-.3226-.06-.4842-.06-.3157,0-.6257.0807-.9107.2295-.0171-.3691-.1273-.7317-.3431-1.0427-.5911-.8539-1.7769-1.0892-2.6985-.5356l-7.644,4.5856.9861-1.7759c.3774-.6765.3631-1.5124-.0376-2.1804-.195-.3255-.4737-.5957-.8056-.781-.2748-.1523-.5727-.2246-.8662-.2246-.6294-.0003-1.2395.3323-1.5652.9197.0004-.0007-3.2237,5.8081-3.4213,6.161-.033.0475-.1296.186-.2124.3037-.0781.1115-.1642.219-.2517.3247-1.9089,2.3126-2.1394,5.3426-.6007,7.9072.9724,1.621,2.5715,2.7309,4.5025,3.1254,1.9138.3909,3.9276.0303,5.6695-1.0143l9.3334-5.5993c.4539-.2724.7749-.7053.9035-1.2185.1282-.5136.0488-1.0462-.224-1.5008-.1703-.2833-.408-.5069-.6838-.6722ZM20.8973,39.3989c-.06.2405-.2104.4434-.4235.571l-9.3342,5.5994c-1.5151.9091-3.2607,1.2225-4.9168.8856-1.6384-.3344-2.9915-1.2702-3.8101-2.6352-1.3217-2.2037-1.1311-4.7062.5103-6.6949.1046-.127.2071-.256.3015-.3903q.2777-.3968.3032-.4812l-.007-.0016c.3035-.504,1.0899-1.9204,3.3969-6.0766.1955-.3538.6428-.4819.9981-.2853.1718.0964.3123.2323.4146.4028h0c.2075.3458.215.7772.0204,1.1265l-1.9396,3.4945c-.1154.2081-.0769.4684.0947.634.1711.1653.4327.1949.6369.0729l9.3275-5.5956c.4397-.2642,1.0196-.16,1.2907.2322.1563.2256.2065.4948.1405.758-.06.2398-.2108.4427-.4238.5706l-6.1006,3.6598c-.2491.1497-.3302.4734-.1805.7227.1495.2497.4727.3309.7228.1804l6.1003-3.6597h.0004s.0003-.0003.0006-.0003l1.3861-.8316c.2124-.1273.4612-.1646.7029-.1046.2405.0601.4434.2105.571.4232.1277.2131.1649.4627.1049.703-.06.2404-.2104.443-.4235.5709l-7.4873,4.4916c-.249.1497-.3302.4734-.1804.7227s.4727.3305.7227.1804l6.1006-3.6598c.4384-.2632,1.0101-.1203,1.2736.3187.1279.2128.1653.4628.1052.7033-.06.2398-.2107.4427-.4238.5707l-1.4955.8972-4.6051,2.7626c-.2493.1497-.3302.4733-.1804.7226.1494.2497.4733.3302.7227.1805l4.6047-2.7626c.4387-.2642,1.0104-.12,1.2735.3186.128.2131.1653.4629.1052.703ZM44.21,36.4543c-.088-.1062-.1731-.2131-.252-.3249-.0828-.1177-.1794-.2563-.2115-.3029-.1504-.2688-2.2891-4.1201-3.4225-6.1623-.3252-.5875-.9361-.9193-1.5652-.9197-.2928,0-.5897.0719-.8638.2236-.3335.1869-.6125.4572-.8078.7824-.4008.6683-.4146,1.5041-.0366,2.1816l.9852,1.7745-7.6437-4.5849c-.923-.5538-2.1078-.3176-2.6992.5357-.2157.3111-.3256.6735-.343,1.0426-.285-.149-.5951-.2291-.9112-.2295-.1609,0-.3235.0198-.4838.06-.5133.1284-.9464.4493-1.2185.9035-.2725.4539-.3523.9867-.2237,1.5003.1181.4724.405.8705.8035,1.1446-.2744.1619-.5148.3902-.6904.6821-.2724.4544-.3522.9875-.2236,1.5008.128.5133.4492.946.9035,1.2185l.0026.0016c-.2761.1653-.5143.3889-.6841.6726-.2722.4539-.3519.9866-.2243,1.4995.1286.5139.4499.9467.9041,1.2192l9.3343,5.5995c1.7423,1.0447,3.7553,1.4046,5.6695,1.0143,1.9314-.3945,3.5301-1.5041,4.5022-3.1253h-.0001c1.5388-2.5643,1.3086-5.5941-.6-7.9076ZM43.9062,43.8205c-.8186,1.365-2.1717,2.3008-3.8098,2.6353-1.6552.3378-3.402.0231-4.9168-.8856l-9.3342-5.5995c-.2134-.1284-.3642-.3309-.4242-.571-.0594-.2398-.0221-.4898.1055-.7029.1277-.2128.3309-.3632.571-.4232.2414-.0605.4905-.0228.7029.1045l4.6044,2.7626c.25.1505.5729.0686.7227-.1804.1497-.2497.069-.573-.1805-.7227l-4.6043-2.7626-1.4956-.8972c-.2134-.1283-.3641-.3308-.4242-.5709-.0594-.2402-.0224-.4899.1055-.703.2639-.4394.8353-.5825,1.274-.3187l6.0999,3.6597c.25.1498.573.0687.7228-.1804.1497-.2497.0688-.573-.1805-.7226l-6.03-3.6179-1.457-.8738c-.213-.128-.3638-.3309-.4238-.571-.0594-.2402-.0224-.4898.1055-.7026.1277-.2134.3302-.3638.571-.4238.2401-.0603.4901-.0228.7026.1045l7.4873,4.4916c.25.1501.5729.0685.7226-.1805.1498-.2497.069-.573-.1804-.7226l-6.0987-3.6588c-.0007-.0003-.001-.0009-.0016-.0013-.2135-.128-.3642-.3305-.4242-.5707-.0653-.2628-.0156-.532.1408-.7576.2719-.3926.8514-.4958,1.2911-.2323l9.3275,5.5956c.2051.122.4665.0931.6373-.0729.1712-.1656.2098-.4255.094-.6339l-1.9388-3.4935c-.1956-.3503-.1878-.7818.0194-1.1272.1023-.1705.2425-.3067.417-.4044.3545-.1959.7998-.067.9958.2864,2.2341,4.025,3.0468,5.4881,3.3799,6.0392.0214.1059.0288.1165.3137.5208.0937.1337.1966.2633.3015.3903h.0006c1.6411,1.988,1.8314,4.4908.5083,6.6949Z" fill="#022647"/>
</svg>