<?xml version="1.0" encoding="UTF-8"?>
<svg id="Capa_1" xmlns="http://www.w3.org/2000/svg" version="1.1" viewBox="0 0 79.9118 60">
  <!-- Generator: Adobe Illustrator 29.4.0, SVG Export Plug-In . SVG Version: 2.1.0 Build 152)  -->
  <path id="box" d="M79.8107,38.0475c0,12.1728-9.8681,22.0408-22.0408,22.0408H24.7084c-3.3813,0-6.1225-2.7411-6.1225-6.1225V12.3331C18.586,5.5704,24.0682.0882,30.8309.0882h42.8572c3.3814,0,6.1226,2.7411,6.1226,6.1225v31.8368Z" fill="#b3df07"/>
  <path id="users" d="M48.364,28.6739c.0262.0004.0511.0037.0773.0037.0263,0,.0511-.0037.0774-.0037,5.2385.0416,9.4264,4.2839,9.4264,9.6105v2.5123h-13.5782l-.0004-3.2443c0-2.4887-.658-4.817-1.7965-6.8351,1.5947-1.2675,3.5984-2.0257,5.7942-2.0434h-.0001ZM12.6704,28.6739c.0257.0004.0511.0037.0773.0037.0263,0,.0511-.0037.0774-.0037,2.1938.0176,4.1962.7741,5.7905,2.0398-1.1409,2.0186-1.8006,4.3485-1.8006,6.8387v3.2443H3.2437v-2.5127c0-5.3267,4.188-9.5685,9.4264-9.6105l.0003.0004ZM30.5167,25.7203c.0257.0004.051.0036.0773.0036.0257,0,.0511-.0036.0773-.0036,6.4864.0416,11.6775,5.2773,11.6775,11.8315l-.0004,3.2521h-23.5078v-3.2521c0-6.5547,5.1896-11.7898,11.6751-11.8315h.001ZM48.4416,17.1483c2.595,0,4.6886,2.1062,4.6886,4.7479,0,2.624-2.0665,4.7211-4.6371,4.7496-.0172,0-.0338-.0018-.0514-.0018-.0172,0-.0339.0018-.0516.0018-2.5707-.0285-4.6371-2.1261-4.6371-4.7496,0-2.6416,2.0935-4.7479,4.6886-4.7479h.0001ZM12.748,17.1483c2.595,0,4.6886,2.1062,4.6886,4.7479,0,2.624-2.0665,4.7211-4.6371,4.7496-.0172,0-.0338-.0018-.0514-.0018-.0172,0-.0339.0018-.0516.0018-2.5707-.0285-4.6371-2.1261-4.6371-4.7496,0-2.6416,2.0935-4.7479,4.6886-4.7479h.0001ZM30.5941,11.7874c3.2706,0,5.9072,2.6544,5.9072,5.9584,0,3.2782-2.5955,5.9067-5.8298,5.9488-.0259,0-.0511-.0036-.0774-.0036-.0262,0-.051.0036-.0773.0036-3.2343-.0416-5.8281-2.6705-5.8281-5.9488,0-3.3045,2.6345-5.9584,5.905-5.9584h.0004ZM30.5941,9.7616c-4.3729,0-7.9329,3.5925-7.9329,7.9842,0,2.7781,1.4266,5.2311,3.5808,6.661-2.6019.8699-4.8531,2.4959-6.5045,4.6231-.9128-.7022-1.933-1.2669-3.0327-1.6716,1.6675-1.238,2.7573-3.2268,2.7573-5.4619,0-3.7246-3.0124-6.7736-6.7144-6.7736s-6.7144,3.049-6.7144,6.7736c0,2.2364,1.0907,4.226,2.7596,5.464-4.4186,1.6305-7.5743,5.8996-7.5743,10.9236v3.5292c.0004.2691.1081.5267.2988.7162.1909.1899.449.2957.7181.2948h15.4836c.0377.0041.0752.0064.1127.0059h25.5255c.0375.0004.0755-.0018.1126-.0059h15.4849c.5565-.0022,1.0073-.454,1.0087-1.011v-3.5292c0-5.024-3.1503-9.2931-7.5667-10.9241,1.669-1.2376,2.7597-3.2277,2.7597-5.4641,0-3.7246-3.0124-6.7736-6.7144-6.7736s-6.7144,3.049-6.7144,6.7736c0,2.2352,1.0901,4.2242,2.7578,5.4619-1.1019.4056-2.1225.9722-3.0367,1.6761-1.6505-2.1284-3.8987-3.7567-6.5005-4.6271,2.1536-1.4299,3.5808-3.8829,3.5808-6.661,0-4.3916-3.5618-7.9842-7.9348-7.9842h-.0003Z" fill="#022647"/>
</svg>