<svg xmlns="http://www.w3.org/2000/svg" xmlns:xlink="http://www.w3.org/1999/xlink" id="Capa_2" data-name="Capa 2" viewBox="0 0 1828 352.7"><defs><style>      .cls-1 {        fill: #022647;      }      .cls-1, .cls-2, .cls-3 {        stroke-width: 0px;      }      .cls-2 {        fill: #fff;      }      .cls-3 {        fill: url(#Degradado_sin_nombre_2);      }    </style><linearGradient id="Degradado_sin_nombre_2" data-name="Degradado sin nombre 2" x1="50.2" y1="298.37" x2="303.34" y2="53.91" gradientUnits="userSpaceOnUse"><stop offset=".01" stop-color="#00986b"></stop><stop offset=".07" stop-color="#0f9f6a"></stop><stop offset=".3" stop-color="#44b968"></stop><stop offset=".5" stop-color="#6acc66"></stop><stop offset=".66" stop-color="#82d765"></stop><stop offset=".76" stop-color="#8bdc65"></stop><stop offset=".81" stop-color="#8fdc5a"></stop><stop offset=".88" stop-color="#9bdd3e"></stop><stop offset=".98" stop-color="#aede11"></stop><stop offset="1" stop-color="#b4df06"></stop></linearGradient></defs><g id="Capa_1-2" data-name="Capa 1"><g><circle class="cls-2" cx="176.35" cy="176.35" r="176.35"></circle><path class="cls-3" d="M299.51,50.06c-9.55,8.14-19.17,16.2-28.74,24.31-1.29,1.1-2.52,1.7-4.4,1.57-15.92-1.14-31.21,1.89-45.79,8.08-8.92,3.78-14.04,13.76-4.9,24.66-3.07.85-6.11.48-9.11.6-5.24.21-10.49.16-15.67,1.36-3.18.74-5.95,2.15-8.55,4.01-6,4.32-7.49,11.41-3.46,17.64,1.56,2.41,1.37,3.21-1.57,3.52-11.18,1.18-15.73,11.65-11.66,20.17,1.26,2.64,3.32,4.63,5.61,6.32,1.42,1.04,1.57,1.95.98,3.57-3.42,9.3-1.3,14.16,7.82,17.92,7.35,3.03,15.15,4.32,22.98,5.29,1.93.24,3.52.85,5.1,1.95,3.68,2.56,7.46,4.98,11.24,7.4.97.62,1.7,1.19,1.75,2.5.49,11.71.93,23.43-1.5,35.01-1.54,7.35-7.02,11.3-13.41,9.91-4.43-.96-6.84-3.71-6.96-8.22-.19-7.45-.56-14.88-1.31-22.29-.17-1.66-.23-3.6-2.66-3.2-2.1.35-1.77,2.08-1.64,3.65.78,9.93,1.71,19.87,1.02,29.83-.64,9.26-7.69,14.05-15.62,10.8-3.67-1.5-6.01-4.1-6.46-8.32-.78-7.4-1.79-14.78-2.71-22.17-.22-1.76-.34-3.91-2.86-3.45-2.3.43-1.67,2.53-1.45,4.07,1.84,13.12,3.48,26.26,3.86,39.53.18,6.37-1.95,10.06-6.89,12.2-6.95,3.01-13.84-.74-14.94-8.23-1.9-12.89-3.75-25.78-5.6-38.67-.24-1.67-.33-3.62-2.61-3.4-2.41.23-1.95,2.24-1.72,3.85,2.92,20.48,5.88,40.96,8.81,61.44.53,3.68.66,7.46,1.56,11.05,1.17,4.69-3.65,9.5-9.2,8.6-3.1-.51-5.43-2.16-7.21-4.72-3.52-5.05-5.06-10.9-6.62-16.7-6.21-22.99-9.39-46.53-12.52-70.08-1.25-9.42-2.56-18.84-3.97-29.27-4.44,5.53-8.31,10.37-12.21,15.17-1.52,1.87-3.03,3.77-4.75,5.43-2.11,2.02-4.89,1.74-7.74-.48-2.23-1.73-2.88-3.67-1.15-6.2,3.5-5.14,4.33-10.83,4.63-17.05.5-10.51,4.12-20.56,6.57-30.77.36-1.49.94-2.93,1.24-4.42,2.07-10.12,9.09-16.98,15.79-24.05,10.99-11.6,22.66-22.51,33.96-33.8,6.08-6.07,10.23-13.63,15.41-20.4,13.08-17.1,27.49-33.03,43.89-46.88,8.06-6.8,15.82-13.87,23.39-21.12C211.4,2.7,194.29.05,176.56.05,79.19.05.27,78.98.27,176.35c0,42.25,14.88,81.01,39.65,111.37,21.25-24.41,41.2-49.86,60.42-75.9.89-1.21,1.83-2.38,2.74-3.57,1.12.51.85,1.47.95,2.19,2.23,15.8,4.18,31.64,6.71,47.38,2.32,14.43,5.08,28.81,10.11,42.63.07.19.07.43.18.58,3.32,4.47,1.92,8.49-.41,13.04-4.22,8.24-8.38,16.51-12.53,24.78,21.05,8.88,44.19,13.8,68.47,13.8,97.36,0,176.29-78.93,176.29-176.29,0-49.53-20.45-94.26-53.34-126.29ZM251.1,205.41c-2.53,3-5.82,5.16-8.65,7.08-4.96,3.51-10.1,5.57-15.22,7.69-1.93.8-2.05.03-1.93-1.54.5-6.88-.19-13.73-.46-20.6-.07-1.79-.42-2.74-2.4-3.51-4.01-1.57-7.4-4.38-10.88-6.91-2.52-1.84-5.23-2.62-8.25-2.99-6.84-.84-13.59-2.14-20.03-4.71-4.63-1.84-6.08-4.09-5.39-8.05.87-5,1.99-5.9,7.12-6.05,13.96-.41,27.91-.67,41.71,2.05,6.08,1.2,12.08,2.7,16.63,7.33,5.12,5.21,8.87,11.44,11.12,18.25,1.37,4.14-.47,8.53-3.37,11.97ZM261.42,175.5c-2.24,2.34-4,4.91-4.68,8.88-3.37-5.08-5.9-9.87-9.85-13.64-5.65-5.41-12.84-7.27-20.18-8.57-15.65-2.76-31.44-2.53-47.23-1.6-2.68.16-7.25-3.38-8.72-6.93-1.5-3.63-.59-7.73,2.24-10.17,1.74-1.5,3.75-2.32,6.02-2.67,3.48-.54,6.97-.51,10.47-.51,16.21,0,32.44-.5,48.48,2.69,1.14.23,2.29.53,3.44.6,8.82.56,13.76,6.24,17.61,13.33,1.67,3.07,3.29,6.14,4.37,9.51,1.14,3.53.51,6.49-1.98,9.07ZM265.84,140.71c-1.8,2.96-3.26,6.12-5.08,9.58-1.17-1.58-2.02-2.78-2.93-3.95-2.67-3.46-5.99-5.77-10.4-6.74-13.91-3.04-27.92-4.91-42.21-4.47-4.65.14-9.33-.33-13.97-.04-4.29.26-6.04-2.63-7.68-5.51-1.82-3.2-1.56-6.54.92-9.47,3.27-3.87,7.9-5.12,12.53-5.33,19.24-.87,38.47-2.1,57.74-.12,4.76.49,7.51,2.9,9.44,6.81.89,1.8,1.63,3.67,2.37,5.54,1.84,4.67,2,9.21-.73,13.7ZM277.36,106.39c-2.2,1.7-4.43,3.37-6.73,5.12-.78.51-1.72.99-2.5,1.65-1.41,1.2-2.45,1.08-3.51-.5-1.37-2.05-3.6-2.63-5.87-3.05-9.9-1.82-19.93-1.59-29.92-1.62-2.97,0-5.42-.91-7.65-2.74-5.6-4.59-5.31-11.71.82-15.5,5.88-3.63,12.55-5.2,19.22-6.52,9.42-1.86,18.91-3.48,28.5-1.09,1.99.5,3.97,1.19,5.79,2.12,7.56,3.86,8.62,16.92,1.85,22.14Z"></path><polygon class="cls-1" points="479.9 198.85 501.75 198.85 501.75 94.68 538.4 94.68 538.4 76.14 443.16 76.14 443.16 94.68 479.9 94.68 479.9 198.85"></polygon><path class="cls-1" d="M594.56,171.9c-2.3,7.48-9.78,12.41-19.65,12.41-13.86,0-22.71-9.69-22.71-24.15v-1.28h63.01v-6.89c0-27.39-15.99-45.16-41.58-45.16s-42.52,18.79-42.52,47.28,16.33,46.52,43.37,46.52c21.35,0,37.16-11.73,39.88-28.74h-19.81ZM573.72,123.25c12.16,0,20.33,8.93,20.75,21.69h-42.09c.85-12.59,9.44-21.69,21.34-21.69Z"></path><path class="cls-1" d="M693.49,76.14h-24.75l-43.54,122.71h22.62l10.46-31.72h45.16l10.46,31.72h23.13l-43.54-122.71ZM663.38,150.21l17.18-52.39h.59l17.09,52.39h-34.87Z"></path><path class="cls-1" d="M829.41,167.22h-19.98c-1.95,10.21-8.93,16.33-19.64,16.33-13.44,0-22.11-10.89-22.11-29.76s8.59-29.76,21.94-29.76c11.31,0,18.03,7.23,19.73,16.84h19.98c-1.45-18.97-16.16-34.02-39.97-34.02-26.19,0-43.2,18.11-43.2,46.94s17.01,46.86,43.37,46.86c22.62,0,38.18-13.26,39.88-33.42Z"></path><path class="cls-1" d="M886.58,106.84c-26.28,0-43.63,17.86-43.63,46.94s17.18,46.86,43.63,46.86,43.62-17.6,43.62-46.86-17.35-46.94-43.62-46.94ZM886.58,183.89c-13.44,0-22.11-10.89-22.11-30.1s8.76-30.11,22.11-30.11,22.11,10.97,22.11,30.11-8.67,30.1-22.11,30.1Z"></path><path class="cls-1" d="M969.69,143.66c0-10.89,7.15-18.79,17.35-18.79s15.98,6.21,15.98,16.25v57.74h20.58v-55.7c0-10.8,6.97-18.29,17.18-18.29s16.16,6.3,16.16,17.35v56.64h21.17v-61.82c0-18.03-11.65-30.02-29.42-30.02-13.01,0-23.72,6.97-28.06,18.11h-.51c-3.31-11.57-12.41-18.11-25.17-18.11s-21.77,6.89-25.68,17.35h-.43v-15.65h-20.32v90.14h21.17v-55.19Z"></path><path class="cls-1" d="M1120.92,183.89h.42c4.94,10.12,15.14,16.41,28.24,16.41,22.62,0,37.07-17.77,37.07-46.52s-14.54-46.6-37.41-46.6c-13.1,0-23.3,6.63-28.4,17.09h-.42v-15.57h-20.67v119.82h21.17v-44.65ZM1142.77,124.61c13.69,0,22.19,11.4,22.19,29.17s-8.5,29.17-22.19,29.17-21.94-11.48-22.03-29.17c.09-17.52,8.84-29.17,22.03-29.17Z"></path><path class="cls-1" d="M1280.39,198.85v-62.08c0-18.11-14.54-29.93-36.91-29.93s-37.34,12.08-38.27,28.91h19.64c1.36-7.48,7.74-12.33,17.77-12.33s16.83,5.44,16.83,14.88v6.47l-23.81,1.36c-21.94,1.36-34.27,10.97-34.27,26.96s12.67,27.21,30.1,27.21c11.57,0,22.88-6.04,28.06-15.82h.42v14.37h20.41ZM1259.47,165.43c0,10.89-9.61,18.88-21.6,18.88-9.19,0-15.31-4.68-15.31-12.08s5.87-11.73,16.07-12.41l20.83-1.27v6.89Z"></path><path class="cls-1" d="M1382.39,198.85v-58.25c0-20.83-11.31-33.59-31.21-33.59-13.86,0-23.47,6.47-28.32,17.18h-.42v-15.48h-20.32v90.14h21.17v-52.22c0-12.93,7.74-21.68,19.9-21.68s18.03,7.14,18.03,19.9v54h21.18Z"></path><path class="cls-1" d="M1331.7,83.88c6.46,0,10.8,11.99,22.37,11.99,9.95,0,17.69-8.59,17.69-22.88h-12.25c-.09,7.23-2.21,11.14-5.87,11.14-6.21,0-10.29-12.08-22.37-12.08-10.29,0-17.86,8.16-17.86,22.79h12.33c-.17-6.89,2.05-10.97,5.95-10.97Z"></path><path class="cls-1" d="M1434.71,146.13c-21.94,1.36-34.27,10.97-34.27,26.96s12.67,27.21,30.1,27.21c11.57,0,22.88-6.04,28.06-15.82h.42v14.37h20.41v-62.08c0-18.11-14.54-29.93-36.91-29.93s-37.34,12.08-38.27,28.91h19.64c1.36-7.48,7.74-12.33,17.78-12.33s16.83,5.44,16.83,14.88v6.47l-23.81,1.36ZM1458.52,165.43c0,10.89-9.61,18.88-21.6,18.88-9.19,0-15.31-4.68-15.31-12.08s5.87-11.73,16.07-12.41l20.83-1.27v6.89Z"></path><path class="cls-1" d="M1522.33,143.66c0-10.89,7.15-18.79,17.35-18.79s15.98,6.21,15.98,16.25v57.74h20.58v-55.7c0-10.8,6.97-18.29,17.18-18.29s16.16,6.3,16.16,17.35v56.64h21.17v-61.82c0-18.03-11.65-30.02-29.42-30.02-13.01,0-23.72,6.97-28.06,18.11h-.51c-3.32-11.57-12.41-18.11-25.17-18.11s-21.77,6.89-25.68,17.35h-.42v-15.65h-20.32v90.14h21.17v-55.19Z"></path><path class="cls-1" d="M1735.9,153.78c0-29.17-17.35-46.94-43.63-46.94s-43.63,17.86-43.63,46.94,17.18,46.86,43.63,46.86,43.63-17.6,43.63-46.86ZM1670.16,153.78c0-19.14,8.76-30.11,22.11-30.11s22.11,10.97,22.11,30.11-8.67,30.1-22.11,30.1-22.11-10.89-22.11-30.1Z"></path><path class="cls-1" d="M1802.16,147.58l-16.07-3.57c-8.84-2.13-12.93-5.53-12.93-10.63,0-6.55,6.12-10.97,15.48-10.97,9.86,0,16.07,4.76,16.75,12.5h19.73c-.51-16.67-14.88-28.06-36.06-28.06s-36.48,11.22-36.48,27.72c0,13.01,8.42,21.69,25.09,25.6l16.41,3.83c8.76,2.21,12.08,5.02,12.08,10.29,0,6.72-6.38,10.89-16.67,10.89s-17.09-4.59-18.37-12.84h-20.83c1.45,17.09,15.82,28.32,38.44,28.32s38.53-11.48,38.53-28.49c0-13.35-7.06-20.33-25.09-24.58Z"></path><g><path class="cls-1" d="M466.85,259.78l15.99,41.97h-7.58l-3.94-10.7h-16.28l-3.88,10.7h-7.35l15.99-41.97h7.05ZM463.14,267.83l-6.17,17.28h12.4l-6.23-17.28Z"></path><path class="cls-1" d="M509.02,299.6c-2.21,2.06-5.38,3.09-9.49,3.09-2.47,0-4.61-.38-6.44-1.15-1.82-.76-3.34-1.85-4.56-3.26-1.22-1.41-2.12-3.1-2.7-5.08-.59-1.98-.88-4.18-.88-6.61s.33-4.65,1-6.67c.67-2.02,1.64-3.74,2.91-5.17,1.27-1.43,2.83-2.54,4.67-3.32,1.84-.78,3.94-1.18,6.29-1.18,2.15,0,3.98.28,5.47.85,1.49.57,2.72,1.33,3.7,2.29.98.96,1.74,2.07,2.29,3.32s.94,2.57,1.18,3.94l-6.64,1c-.31-1.72-.91-3.15-1.79-4.29-.88-1.14-2.36-1.71-4.44-1.71-1.49,0-2.72.31-3.7.94-.98.63-1.76,1.44-2.35,2.44s-1.01,2.15-1.26,3.44c-.25,1.29-.38,2.61-.38,3.94,0,1.53.14,2.96.41,4.29.27,1.33.71,2.48,1.29,3.44.59.96,1.37,1.72,2.35,2.29.98.57,2.17.85,3.59.85,2.04,0,3.58-.54,4.64-1.62,1.06-1.08,1.72-2.62,2-4.61h6.76c-.39,3.65-1.7,6.5-3.91,8.55Z"></path><path class="cls-1" d="M522.69,298.46c-2.63-2.82-3.94-6.82-3.94-11.99,0-2.43.34-4.64,1.03-6.64.69-2,1.68-3.7,2.97-5.11,1.29-1.41,2.88-2.51,4.76-3.29,1.88-.78,4.02-1.18,6.41-1.18s4.58.4,6.46,1.2,3.46,1.91,4.73,3.32c1.27,1.41,2.23,3.1,2.88,5.08s.97,4.14.97,6.5c0,2.66-.37,5.01-1.12,7.02-.74,2.02-1.79,3.72-3.14,5.11-1.35,1.39-2.95,2.44-4.79,3.14-1.84.71-3.88,1.06-6.11,1.06-4.78,0-8.48-1.41-11.11-4.23ZM540.06,294.37c1.31-1.94,1.97-4.59,1.97-7.96s-.66-5.96-1.97-7.88c-1.31-1.92-3.38-2.88-6.2-2.88s-4.89.97-6.2,2.91c-1.31,1.94-1.97,4.56-1.97,7.85s.64,5.98,1.91,7.94c1.27,1.96,3.36,2.94,6.26,2.94s4.89-.97,6.2-2.91Z"></path><path class="cls-1" d="M562.72,275.59c2.12-2.94,4.62-4.64,7.52-5.11.74-.12,1.53-.18,2.35-.18,2.08.08,3.76.6,5.06,1.56,1.29.96,2.23,2.26,2.82,3.91,2.7-3.68,6.03-5.52,9.99-5.52,3.25,0,5.64.9,7.17,2.7,1.53,1.8,2.29,4.68,2.29,8.64v20.16h-6.7v-18.34c0-1.49-.1-2.72-.29-3.7-.2-.98-.48-1.75-.85-2.32-.37-.57-.85-.96-1.44-1.18-.59-.22-1.25-.32-2-.32-1.18,0-2.22.21-3.12.64-.9.43-1.65,1-2.26,1.71-.61.71-1.07,1.5-1.38,2.38-.31.88-.47,1.79-.47,2.73v18.4h-6.7v-18.98c0-2.63-.4-4.43-1.21-5.41-.8-.98-1.91-1.47-3.32-1.47-.59,0-1.29.13-2.12.38-.82.25-1.62.68-2.38,1.26-.76.59-1.42,1.37-1.97,2.35-.55.98-.82,2.17-.82,3.58v18.28h-6.64v-30.56h6.46v4.41Z"></path><path class="cls-1" d="M614.39,271.18v4.23c1.25-1.69,2.69-2.97,4.32-3.85,1.63-.88,3.5-1.32,5.61-1.32s4.04.38,5.64,1.14c1.61.76,2.95,1.85,4.03,3.26,1.08,1.41,1.88,3.11,2.41,5.09.53,1.98.79,4.18.79,6.61s-.31,4.71-.94,6.73c-.63,2.02-1.52,3.74-2.67,5.17-1.15,1.43-2.56,2.53-4.2,3.29-1.64.76-3.51,1.15-5.58,1.15-1.65,0-3.25-.31-4.82-.94-1.57-.63-3.04-1.78-4.41-3.47v14.87h-6.7v-41.97h6.52ZM615.16,291.96c.43,1.31,1.01,2.36,1.73,3.14.72.78,1.57,1.33,2.53,1.65.96.31,1.97.47,3.03.47s2.12-.2,3.06-.59c.94-.39,1.76-1.02,2.47-1.88.71-.86,1.25-1.98,1.65-3.35s.59-3.04.59-5-.21-3.67-.62-5.03c-.41-1.35-.96-2.45-1.65-3.29-.69-.84-1.48-1.44-2.38-1.79-.9-.35-1.84-.53-2.82-.53-2.39,0-4.36.78-5.91,2.35-1.55,1.57-2.32,4.04-2.32,7.41v1.47c0,2,.21,3.65.65,4.97Z"></path><path class="cls-1" d="M658.77,301.16c-1.65.9-3.64,1.35-6,1.35-1.45,0-2.8-.19-4.06-.56-1.25-.37-2.34-.93-3.26-1.67-.92-.74-1.65-1.7-2.17-2.85-.53-1.15-.79-2.52-.79-4.08,0-2.12.47-3.83,1.41-5.14.94-1.31,2.16-2.34,3.67-3.09,1.51-.74,3.2-1.26,5.09-1.56,1.88-.3,3.76-.48,5.64-.56l4.52-.23v-1.29c0-2.31-.56-3.91-1.67-4.79-1.12-.88-2.58-1.32-4.38-1.32-2.08,0-3.61.35-4.61,1.06-1,.71-1.66,1.72-1.97,3.06l-6.11-.65c.55-2.98,1.9-5.15,4.06-6.52,2.15-1.37,5.11-2.06,8.88-2.06,2.43,0,4.44.31,6.02.94,1.59.63,2.85,1.49,3.79,2.59s1.6,2.4,1.97,3.91c.37,1.51.56,3.16.56,4.97v19.1h-6.41v-4c-1.14,1.37-2.53,2.51-4.17,3.41ZM653.69,288.11c-1.23.31-2.18.72-2.85,1.21-.67.49-1.11,1.06-1.32,1.71s-.32,1.34-.32,2.09c0,1.33.42,2.37,1.26,3.12.84.74,2.09,1.12,3.73,1.12,2.94,0,5.11-.74,6.52-2.23,1.41-1.49,2.12-3.51,2.12-6.05v-1.76l-4.29.18c-2,.12-3.61.33-4.85.64Z"></path><path class="cls-1" d="M683.81,275.65c1.37-1.88,2.91-3.25,4.61-4.11,1.71-.86,3.54-1.29,5.5-1.29,6.82,0,10.23,3.76,10.23,11.29v20.22h-6.7v-19.16c0-2.47-.45-4.2-1.35-5.2-.9-1-2.23-1.5-4-1.5-1.18,0-2.26.2-3.26.62-1,.41-1.85.97-2.56,1.67-.7.71-1.26,1.52-1.67,2.44-.41.92-.62,1.89-.62,2.91v18.22h-6.64v-30.56h6.46v4.47ZM681.73,260.54c1.16-1.25,2.75-1.88,4.79-1.88.7,0,1.39.15,2.06.44.67.29,1.32.62,1.97.97.65.35,1.28.68,1.91.97.63.29,1.27.44,1.94.44,1.65,0,2.47-.88,2.47-2.64h4.64c0,2.66-.58,4.59-1.73,5.79-1.16,1.2-2.73,1.79-4.73,1.79-.74,0-1.45-.12-2.12-.35-.67-.23-1.29-.51-1.88-.82l-1.7-1c-.39-.2-.75-.35-1.09-.47-.33-.12-.7-.18-1.09-.18-1.69,0-2.53.9-2.53,2.7h-4.64c0-2.59.58-4.51,1.73-5.76Z"></path><path class="cls-1" d="M726.49,301.16c-1.65.9-3.64,1.35-6,1.35-1.45,0-2.8-.19-4.06-.56-1.25-.37-2.34-.93-3.26-1.67-.92-.74-1.65-1.7-2.17-2.85-.53-1.15-.79-2.52-.79-4.08,0-2.12.47-3.83,1.41-5.14.94-1.31,2.16-2.34,3.67-3.09,1.51-.74,3.2-1.26,5.09-1.56,1.88-.3,3.76-.48,5.64-.56l4.52-.23v-1.29c0-2.31-.56-3.91-1.67-4.79-1.12-.88-2.58-1.32-4.38-1.32-2.08,0-3.61.35-4.61,1.06-1,.71-1.66,1.72-1.97,3.06l-6.11-.65c.55-2.98,1.9-5.15,4.06-6.52,2.15-1.37,5.11-2.06,8.88-2.06,2.43,0,4.44.31,6.02.94,1.59.63,2.85,1.49,3.79,2.59.94,1.1,1.6,2.4,1.97,3.91.37,1.51.56,3.16.56,4.97v19.1h-6.41v-4c-1.14,1.37-2.53,2.51-4.17,3.41ZM721.4,288.11c-1.23.31-2.18.72-2.85,1.21-.67.49-1.11,1.06-1.32,1.71-.22.65-.32,1.34-.32,2.09,0,1.33.42,2.37,1.26,3.12.84.74,2.09,1.12,3.73,1.12,2.94,0,5.11-.74,6.52-2.23,1.41-1.49,2.12-3.51,2.12-6.05v-1.76l-4.29.18c-2,.12-3.61.33-4.85.64Z"></path><path class="cls-1" d="M751.53,275.59c2.12-2.94,4.62-4.64,7.52-5.11.74-.12,1.53-.18,2.35-.18,2.08.08,3.76.6,5.06,1.56,1.29.96,2.23,2.26,2.82,3.91,2.7-3.68,6.03-5.52,9.99-5.52,3.25,0,5.64.9,7.17,2.7,1.53,1.8,2.29,4.68,2.29,8.64v20.16h-6.7v-18.34c0-1.49-.1-2.72-.29-3.7-.2-.98-.48-1.75-.85-2.32-.37-.57-.85-.96-1.44-1.18-.59-.22-1.25-.32-2-.32-1.18,0-2.21.21-3.12.64-.9.43-1.65,1-2.26,1.71-.61.71-1.07,1.5-1.38,2.38-.31.88-.47,1.79-.47,2.73v18.4h-6.7v-18.98c0-2.63-.4-4.43-1.21-5.41-.8-.98-1.91-1.47-3.32-1.47-.59,0-1.29.13-2.12.38-.82.25-1.62.68-2.38,1.26-.76.59-1.42,1.37-1.97,2.35-.55.98-.82,2.17-.82,3.58v18.28h-6.64v-30.56h6.46v4.41Z"></path><path class="cls-1" d="M803.61,266.42h-6.94v-6.64h6.94v6.64ZM803.49,301.75h-6.7v-30.56h6.7v30.56Z"></path><path class="cls-1" d="M834.94,300.07c-2.15,1.74-5.25,2.62-9.29,2.62-4.86,0-8.55-1.4-11.08-4.2-2.53-2.8-3.79-6.75-3.79-11.84,0-2.63.36-4.96,1.09-6.99.73-2.04,1.74-3.75,3.06-5.14,1.31-1.39,2.88-2.45,4.7-3.17,1.82-.73,3.83-1.09,6.03-1.09,2.35,0,4.39.36,6.11,1.09,1.72.72,3.16,1.74,4.29,3.06,1.14,1.31,1.98,2.88,2.53,4.7.55,1.82.82,3.85.82,6.08v2.94h-21.92c.08,2.78.78,5.04,2.12,6.76s3.35,2.59,6.05,2.59c2.12,0,3.7-.41,4.76-1.23,1.06-.82,1.76-2,2.12-3.53h6.46c-.55,3.17-1.9,5.63-4.06,7.38ZM831.12,277.53c-1.18-1.45-3.06-2.17-5.64-2.17s-4.35.73-5.64,2.21c-1.29,1.47-2.04,3.44-2.23,5.91h15.28c0-2.51-.59-4.49-1.76-5.94Z"></path><path class="cls-1" d="M853.05,275.65c1.37-1.88,2.91-3.25,4.61-4.11,1.71-.86,3.54-1.29,5.5-1.29,6.82,0,10.23,3.76,10.23,11.29v20.22h-6.7v-19.16c0-2.47-.45-4.2-1.35-5.2s-2.23-1.5-4-1.5c-1.18,0-2.26.2-3.26.62-1,.41-1.85.97-2.56,1.67-.7.71-1.26,1.52-1.67,2.44-.41.92-.62,1.89-.62,2.91v18.22h-6.64v-30.56h6.46v4.47Z"></path><path class="cls-1" d="M878.38,271.18h4.82v-8.23h6.64v8.23h7.58v5.29h-7.58v15.99c0,1.57.32,2.7.97,3.41.65.71,1.6,1.06,2.85,1.06.67,0,1.3-.04,1.91-.12.61-.08,1.21-.22,1.79-.41l1,5c-1.88.63-3.92.94-6.11.94-3.37,0-5.72-.87-7.05-2.62-1.33-1.74-2-4.36-2-7.85v-15.4h-4.82v-5.29Z"></path><path class="cls-1" d="M905.6,298.46c-2.63-2.82-3.94-6.82-3.94-11.99,0-2.43.34-4.64,1.03-6.64.69-2,1.68-3.7,2.97-5.11,1.29-1.41,2.88-2.51,4.76-3.29,1.88-.78,4.02-1.18,6.41-1.18s4.58.4,6.46,1.2c1.88.8,3.46,1.91,4.73,3.32,1.27,1.41,2.23,3.1,2.88,5.08.65,1.98.97,4.14.97,6.5,0,2.66-.37,5.01-1.12,7.02-.74,2.02-1.79,3.72-3.14,5.11-1.35,1.39-2.95,2.44-4.79,3.14-1.84.71-3.88,1.06-6.11,1.06-4.78,0-8.48-1.41-11.11-4.23ZM922.97,294.37c1.31-1.94,1.97-4.59,1.97-7.96s-.66-5.96-1.97-7.88c-1.31-1.92-3.38-2.88-6.2-2.88s-4.89.97-6.2,2.91c-1.31,1.94-1.97,4.56-1.97,7.85s.64,5.98,1.91,7.94c1.27,1.96,3.36,2.94,6.26,2.94s4.89-.97,6.2-2.91Z"></path><path class="cls-1" d="M949.57,265.95v-6.17h33.62v6.17h-13.23v35.8h-7.11v-35.8h-13.28Z"></path><path class="cls-1" d="M1003.82,300.07c-2.15,1.74-5.25,2.62-9.29,2.62-4.86,0-8.55-1.4-11.08-4.2-2.53-2.8-3.79-6.75-3.79-11.84,0-2.63.36-4.96,1.09-6.99.73-2.04,1.74-3.75,3.06-5.14,1.31-1.39,2.88-2.45,4.7-3.17,1.82-.73,3.83-1.09,6.03-1.09,2.35,0,4.39.36,6.11,1.09,1.72.72,3.16,1.74,4.29,3.06,1.14,1.31,1.98,2.88,2.53,4.7.55,1.82.82,3.85.82,6.08v2.94h-21.92c.08,2.78.78,5.04,2.12,6.76,1.33,1.72,3.35,2.59,6.05,2.59,2.12,0,3.7-.41,4.76-1.23,1.06-.82,1.76-2,2.12-3.53h6.46c-.55,3.17-1.9,5.63-4.06,7.38ZM1000,277.53c-1.18-1.45-3.06-2.17-5.64-2.17s-4.35.73-5.64,2.21c-1.29,1.47-2.04,3.44-2.23,5.91h15.28c0-2.51-.59-4.49-1.76-5.94Z"></path><path class="cls-1" d="M1021.93,275.71c1.06-1.61,2.33-2.84,3.82-3.7,1.49-.86,3.08-1.29,4.76-1.29.67,0,1.22.02,1.67.06.45.04.89.1,1.32.18l-.76,6.11c-.43-.12-.9-.2-1.41-.24-.51-.04-1.04-.06-1.59-.06-1.25,0-2.35.21-3.29.62-.94.41-1.73.95-2.38,1.62-.65.67-1.14,1.42-1.47,2.26-.33.84-.5,1.7-.5,2.56v17.93h-6.64v-30.56h6.46v4.53Z"></path><path class="cls-1" d="M1051.79,301.16c-1.65.9-3.64,1.35-6,1.35-1.45,0-2.8-.19-4.06-.56-1.25-.37-2.34-.93-3.26-1.67-.92-.74-1.65-1.7-2.17-2.85-.53-1.15-.79-2.52-.79-4.08,0-2.12.47-3.83,1.41-5.14.94-1.31,2.17-2.34,3.67-3.09,1.51-.74,3.2-1.26,5.09-1.56,1.88-.3,3.76-.48,5.64-.56l4.52-.23v-1.29c0-2.31-.56-3.91-1.67-4.79-1.12-.88-2.58-1.32-4.38-1.32-2.08,0-3.61.35-4.61,1.06-1,.71-1.66,1.72-1.97,3.06l-6.11-.65c.55-2.98,1.9-5.15,4.06-6.52,2.15-1.37,5.11-2.06,8.88-2.06,2.43,0,4.44.31,6.02.94,1.59.63,2.85,1.49,3.79,2.59.94,1.1,1.6,2.4,1.97,3.91.37,1.51.56,3.16.56,4.97v19.1h-6.41v-4c-1.14,1.37-2.53,2.51-4.17,3.41ZM1046.7,288.11c-1.23.31-2.18.72-2.85,1.21-.67.49-1.11,1.06-1.32,1.71-.22.65-.32,1.34-.32,2.09,0,1.33.42,2.37,1.26,3.12.84.74,2.09,1.12,3.73,1.12,2.94,0,5.11-.74,6.52-2.23,1.41-1.49,2.12-3.51,2.12-6.05v-1.76l-4.29.18c-2,.12-3.61.33-4.85.64Z"></path><path class="cls-1" d="M1076.83,271.18v4.23c1.25-1.69,2.69-2.97,4.32-3.85,1.63-.88,3.5-1.32,5.61-1.32s4.04.38,5.64,1.14c1.61.76,2.95,1.85,4.03,3.26,1.08,1.41,1.88,3.11,2.41,5.09.53,1.98.79,4.18.79,6.61s-.31,4.71-.94,6.73c-.63,2.02-1.52,3.74-2.67,5.17-1.15,1.43-2.56,2.53-4.2,3.29-1.64.76-3.51,1.15-5.58,1.15-1.65,0-3.25-.31-4.82-.94-1.57-.63-3.04-1.78-4.41-3.47v14.87h-6.7v-41.97h6.52ZM1077.59,291.96c.43,1.31,1.01,2.36,1.73,3.14.72.78,1.57,1.33,2.53,1.65.96.31,1.97.47,3.03.47s2.12-.2,3.06-.59c.94-.39,1.76-1.02,2.47-1.88.71-.86,1.25-1.98,1.65-3.35.39-1.37.59-3.04.59-5s-.21-3.67-.62-5.03c-.41-1.35-.96-2.45-1.65-3.29-.69-.84-1.48-1.44-2.38-1.79-.9-.35-1.84-.53-2.82-.53-2.39,0-4.36.78-5.91,2.35-1.55,1.57-2.32,4.04-2.32,7.41v1.47c0,2,.21,3.65.65,4.97Z"></path><path class="cls-1" d="M1129.97,300.07c-2.15,1.74-5.25,2.62-9.29,2.62-4.86,0-8.55-1.4-11.08-4.2-2.53-2.8-3.79-6.75-3.79-11.84,0-2.63.36-4.96,1.09-6.99.73-2.04,1.74-3.75,3.06-5.14,1.31-1.39,2.88-2.45,4.7-3.17,1.82-.73,3.83-1.09,6.03-1.09,2.35,0,4.39.36,6.11,1.09,1.72.72,3.16,1.74,4.29,3.06,1.14,1.31,1.98,2.88,2.53,4.7.55,1.82.82,3.85.82,6.08v2.94h-21.92c.08,2.78.78,5.04,2.12,6.76,1.33,1.72,3.35,2.59,6.05,2.59,2.12,0,3.7-.41,4.76-1.23,1.06-.82,1.76-2,2.12-3.53h6.46c-.55,3.17-1.9,5.63-4.06,7.38ZM1126.14,277.53c-1.18-1.45-3.06-2.17-5.64-2.17s-4.35.73-5.64,2.21c-1.29,1.47-2.04,3.44-2.23,5.91h15.28c0-2.51-.59-4.49-1.76-5.94ZM1121.74,266.89h-6.29l6.88-8.7h7.82l-8.41,8.7Z"></path><path class="cls-1" d="M1148.01,290.4c0,2.55.42,4.29,1.26,5.23.84.94,2.13,1.41,3.85,1.41.94,0,1.89-.18,2.85-.53.96-.35,1.81-.86,2.56-1.53.74-.67,1.35-1.47,1.82-2.41.47-.94.71-2,.71-3.17v-18.22h6.7v30.56h-6.52v-4.47c-1.41,1.88-2.94,3.25-4.58,4.11-1.65.86-3.41,1.29-5.29,1.29-3.57,0-6.12-.92-7.67-2.76-1.55-1.84-2.32-4.66-2.32-8.46v-20.28h6.64v19.22Z"></path><path class="cls-1" d="M1173,271.18h4.82v-8.23h6.64v8.23h7.58v5.29h-7.58v15.99c0,1.57.32,2.7.97,3.41.65.71,1.6,1.06,2.85,1.06.67,0,1.3-.04,1.91-.12.61-.08,1.21-.22,1.79-.41l1,5c-1.88.63-3.92.94-6.11.94-3.37,0-5.72-.87-7.05-2.62-1.33-1.74-2-4.36-2-7.85v-15.4h-4.82v-5.29Z"></path><path class="cls-1" d="M1204.86,266.42h-6.94v-6.64h6.94v6.64ZM1204.74,301.75h-6.7v-30.56h6.7v30.56Z"></path><path class="cls-1" d="M1236.1,299.6c-2.21,2.06-5.38,3.09-9.49,3.09-2.47,0-4.61-.38-6.44-1.15-1.82-.76-3.34-1.85-4.56-3.26-1.22-1.41-2.12-3.1-2.7-5.08-.59-1.98-.88-4.18-.88-6.61s.33-4.65,1-6.67c.67-2.02,1.64-3.74,2.91-5.17,1.27-1.43,2.83-2.54,4.67-3.32,1.84-.78,3.94-1.18,6.29-1.18,2.15,0,3.98.28,5.47.85,1.49.57,2.72,1.33,3.7,2.29.98.96,1.74,2.07,2.29,3.32.55,1.25.94,2.57,1.18,3.94l-6.64,1c-.31-1.72-.91-3.15-1.79-4.29-.88-1.14-2.36-1.71-4.44-1.71-1.49,0-2.72.31-3.7.94-.98.63-1.76,1.44-2.35,2.44-.59,1-1.01,2.15-1.26,3.44-.25,1.29-.38,2.61-.38,3.94,0,1.53.14,2.96.41,4.29.27,1.33.7,2.48,1.29,3.44.59.96,1.37,1.72,2.35,2.29.98.57,2.17.85,3.59.85,2.04,0,3.58-.54,4.64-1.62,1.06-1.08,1.72-2.62,2-4.61h6.76c-.39,3.65-1.7,6.5-3.91,8.55Z"></path><path class="cls-1" d="M1249.76,298.46c-2.63-2.82-3.94-6.82-3.94-11.99,0-2.43.34-4.64,1.03-6.64.69-2,1.68-3.7,2.97-5.11,1.29-1.41,2.88-2.51,4.76-3.29,1.88-.78,4.02-1.18,6.41-1.18s4.58.4,6.46,1.2,3.46,1.91,4.73,3.32c1.27,1.41,2.23,3.1,2.88,5.08.65,1.98.97,4.14.97,6.5,0,2.66-.37,5.01-1.12,7.02-.74,2.02-1.79,3.72-3.14,5.11s-2.95,2.44-4.79,3.14c-1.84.71-3.88,1.06-6.11,1.06-4.78,0-8.48-1.41-11.11-4.23ZM1267.13,294.37c1.31-1.94,1.97-4.59,1.97-7.96s-.66-5.96-1.97-7.88c-1.31-1.92-3.38-2.88-6.2-2.88s-4.89.97-6.2,2.91c-1.31,1.94-1.97,4.56-1.97,7.85s.64,5.98,1.91,7.94c1.27,1.96,3.36,2.94,6.26,2.94s4.89-.97,6.2-2.91Z"></path><path class="cls-1" d="M1300.79,307.68c1.18,0,2.1-.28,2.76-.85.67-.57,1.29-1.64,1.88-3.2l1.12-2.94-12.87-29.51h7.76l8.4,22.04,7.7-22.04h7.29l-12.17,30.86c-.71,1.8-1.37,3.39-2,4.76-.63,1.37-1.33,2.53-2.12,3.47-.78.94-1.71,1.65-2.79,2.14-1.08.49-2.4.74-3.97.74-1.02,0-1.96-.07-2.82-.21-.86-.14-1.78-.36-2.76-.68l1.23-5.11c.98.35,2.1.53,3.35.53Z"></path><path class="cls-1" d="M1377.73,293.64c-.82,1.84-1.96,3.45-3.41,4.82-1.45,1.37-3.21,2.44-5.29,3.2-2.08.76-4.49,1.15-7.23,1.15-3.02,0-5.71-.51-8.08-1.53-2.37-1.02-4.37-2.48-6-4.38-1.63-1.9-2.86-4.21-3.7-6.94-.84-2.72-1.26-5.77-1.26-9.14s.46-6.54,1.38-9.29c.92-2.74,2.22-5.06,3.91-6.96,1.69-1.9,3.7-3.35,6.05-4.35,2.35-1,4.94-1.5,7.76-1.5,2.63,0,4.9.33,6.82,1,1.92.67,3.56,1.62,4.91,2.85,1.35,1.24,2.43,2.71,3.23,4.44.8,1.72,1.4,3.64,1.79,5.76l-6.99,1c-.31-1.41-.71-2.66-1.18-3.76-.47-1.1-1.09-2.03-1.85-2.79-.76-.76-1.69-1.35-2.79-1.76-1.1-.41-2.41-.62-3.94-.62-1.88,0-3.55.37-5,1.12-1.45.74-2.67,1.81-3.67,3.2-1,1.39-1.75,3.07-2.26,5.03s-.76,4.15-.76,6.58.26,4.68.79,6.64c.53,1.96,1.3,3.63,2.32,5.02,1.02,1.39,2.24,2.45,3.67,3.17,1.43.72,3.07,1.09,4.91,1.09,1.65,0,3.05-.22,4.2-.65,1.16-.43,2.13-1.04,2.91-1.82.78-.78,1.4-1.73,1.85-2.85.45-1.12.77-2.38.97-3.79h7.52c-.24,2.19-.76,4.21-1.59,6.05Z"></path><path class="cls-1" d="M1392.43,290.4c0,2.55.42,4.29,1.26,5.23.84.94,2.13,1.41,3.85,1.41.94,0,1.89-.18,2.85-.53.96-.35,1.81-.86,2.56-1.53.74-.67,1.35-1.47,1.82-2.41.47-.94.71-2,.71-3.17v-18.22h6.7v30.56h-6.52v-4.47c-1.41,1.88-2.94,3.25-4.58,4.11-1.65.86-3.41,1.29-5.29,1.29-3.57,0-6.12-.92-7.67-2.76-1.55-1.84-2.32-4.66-2.32-8.46v-20.28h6.64v19.22Z"></path><path class="cls-1" d="M1427.28,266.42h-6.94v-6.64h6.94v6.64ZM1427.17,301.75h-6.7v-30.56h6.7v30.56Z"></path><path class="cls-1" d="M1452.88,301.4c-1.59.86-3.44,1.29-5.55,1.29s-4.09-.39-5.7-1.18c-1.61-.78-2.94-1.89-4-3.32-1.06-1.43-1.85-3.14-2.38-5.11-.53-1.98-.79-4.16-.79-6.55,0-2.23.28-4.32.82-6.26.55-1.94,1.35-3.62,2.41-5.06,1.06-1.43,2.36-2.58,3.91-3.44,1.55-.86,3.34-1.33,5.38-1.41.39-.04.78-.05,1.18-.03.39.02.8.05,1.24.09,1.37.16,2.69.54,3.97,1.15,1.27.61,2.5,1.62,3.67,3.03v-14.81h6.64v41.97h-6.52v-4.23c-1.25,1.73-2.67,3.02-4.26,3.88ZM1456.47,280.97c-.41-1.31-.98-2.35-1.7-3.12-.72-.76-1.57-1.31-2.53-1.65-.96-.33-1.97-.5-3.03-.5-2.47,0-4.38.88-5.73,2.65-1.35,1.76-2.03,4.45-2.03,8.05,0,1.96.19,3.62.56,5,.37,1.37.9,2.49,1.59,3.35.69.86,1.48,1.49,2.38,1.88.9.39,1.88.59,2.94.59,2.43,0,4.4-.79,5.91-2.38,1.51-1.59,2.26-4.07,2.26-7.44v-1.59c0-1.92-.21-3.54-.62-4.85Z"></path><path class="cls-1" d="M1486.3,301.16c-1.65.9-3.64,1.35-6,1.35-1.45,0-2.8-.19-4.06-.56-1.25-.37-2.34-.93-3.26-1.67-.92-.74-1.65-1.7-2.17-2.85-.53-1.15-.79-2.52-.79-4.08,0-2.12.47-3.83,1.41-5.14.94-1.31,2.16-2.34,3.67-3.09,1.51-.74,3.2-1.26,5.09-1.56,1.88-.3,3.76-.48,5.64-.56l4.52-.23v-1.29c0-2.31-.56-3.91-1.67-4.79-1.12-.88-2.58-1.32-4.38-1.32-2.08,0-3.61.35-4.61,1.06-1,.71-1.66,1.72-1.97,3.06l-6.11-.65c.55-2.98,1.9-5.15,4.06-6.52,2.15-1.37,5.11-2.06,8.88-2.06,2.43,0,4.44.31,6.02.94,1.59.63,2.85,1.49,3.79,2.59.94,1.1,1.6,2.4,1.97,3.91.37,1.51.56,3.16.56,4.97v19.1h-6.41v-4c-1.14,1.37-2.53,2.51-4.17,3.41ZM1481.22,288.11c-1.23.31-2.18.72-2.85,1.21-.67.49-1.11,1.06-1.32,1.71-.22.65-.32,1.34-.32,2.09,0,1.33.42,2.37,1.26,3.12.84.74,2.09,1.12,3.73,1.12,2.94,0,5.11-.74,6.52-2.23,1.41-1.49,2.12-3.51,2.12-6.05v-1.76l-4.29.18c-2,.12-3.61.33-4.85.64Z"></path><path class="cls-1" d="M1522.24,301.4c-1.59.86-3.44,1.29-5.55,1.29s-4.09-.39-5.7-1.18c-1.61-.78-2.94-1.89-4-3.32-1.06-1.43-1.85-3.14-2.38-5.11-.53-1.98-.79-4.16-.79-6.55,0-2.23.28-4.32.82-6.26.55-1.94,1.35-3.62,2.41-5.06,1.06-1.43,2.36-2.58,3.91-3.44,1.55-.86,3.34-1.33,5.38-1.41.39-.04.78-.05,1.18-.03.39.02.8.05,1.24.09,1.37.16,2.69.54,3.97,1.15,1.27.61,2.5,1.62,3.67,3.03v-14.81h6.64v41.97h-6.52v-4.23c-1.25,1.73-2.67,3.02-4.26,3.88ZM1525.83,280.97c-.41-1.31-.98-2.35-1.7-3.12-.72-.76-1.57-1.31-2.53-1.65-.96-.33-1.97-.5-3.03-.5-2.47,0-4.38.88-5.73,2.65-1.35,1.76-2.03,4.45-2.03,8.05,0,1.96.19,3.62.56,5,.37,1.37.9,2.49,1.59,3.35.69.86,1.48,1.49,2.38,1.88.9.39,1.88.59,2.94.59,2.43,0,4.4-.79,5.91-2.38,1.51-1.59,2.26-4.07,2.26-7.44v-1.59c0-1.92-.21-3.54-.62-4.85Z"></path><path class="cls-1" d="M1544.2,298.46c-2.63-2.82-3.94-6.82-3.94-11.99,0-2.43.34-4.64,1.03-6.64.69-2,1.68-3.7,2.97-5.11,1.29-1.41,2.88-2.51,4.76-3.29s4.02-1.18,6.41-1.18,4.58.4,6.46,1.2c1.88.8,3.46,1.91,4.73,3.32,1.27,1.41,2.23,3.1,2.88,5.08.65,1.98.97,4.14.97,6.5,0,2.66-.37,5.01-1.12,7.02-.74,2.02-1.79,3.72-3.14,5.11s-2.95,2.44-4.79,3.14c-1.84.71-3.88,1.06-6.11,1.06-4.78,0-8.48-1.41-11.11-4.23ZM1561.57,294.37c1.31-1.94,1.97-4.59,1.97-7.96s-.66-5.96-1.97-7.88c-1.31-1.92-3.38-2.88-6.2-2.88s-4.89.97-6.2,2.91c-1.31,1.94-1.97,4.56-1.97,7.85s.64,5.98,1.91,7.94c1.27,1.96,3.36,2.94,6.26,2.94s4.89-.97,6.2-2.91Z"></path><path class="cls-1" d="M1606.68,259.78c3.17,0,5.79.35,7.85,1.06,2.06.7,3.67,1.64,4.85,2.82,1.18,1.18,2,2.54,2.47,4.09.47,1.55.71,3.16.71,4.85,0,1.8-.23,3.53-.71,5.17-.47,1.64-1.3,3.08-2.5,4.32-1.2,1.23-2.81,2.22-4.85,2.94-2.04.72-4.6,1.09-7.7,1.09h-7.64v15.63h-6.99v-41.97h14.52ZM1611.06,279.65c1.16-.35,2.07-.85,2.73-1.5.67-.65,1.13-1.42,1.38-2.32.25-.9.38-1.92.38-3.06s-.14-2.2-.41-3.08c-.27-.88-.75-1.62-1.44-2.21-.69-.59-1.61-1.04-2.76-1.35-1.15-.31-2.62-.47-4.38-.47h-7.41v14.52h7.47c1.8,0,3.28-.18,4.44-.53Z"></path><path class="cls-1" d="M1650.54,300.07c-2.15,1.74-5.25,2.62-9.29,2.62-4.86,0-8.55-1.4-11.08-4.2-2.53-2.8-3.79-6.75-3.79-11.84,0-2.63.36-4.96,1.09-6.99.73-2.04,1.74-3.75,3.06-5.14,1.31-1.39,2.88-2.45,4.7-3.17,1.82-.73,3.83-1.09,6.03-1.09,2.35,0,4.39.36,6.11,1.09,1.72.72,3.16,1.74,4.29,3.06,1.14,1.31,1.98,2.88,2.53,4.7.55,1.82.82,3.85.82,6.08v2.94h-21.92c.08,2.78.78,5.04,2.12,6.76,1.33,1.72,3.35,2.59,6.05,2.59,2.12,0,3.7-.41,4.76-1.23,1.06-.82,1.76-2,2.12-3.53h6.46c-.55,3.17-1.9,5.63-4.06,7.38ZM1646.72,277.53c-1.18-1.45-3.06-2.17-5.64-2.17s-4.35.73-5.64,2.21c-1.29,1.47-2.04,3.44-2.23,5.91h15.28c0-2.51-.59-4.49-1.76-5.94Z"></path><path class="cls-1" d="M1668.64,275.71c1.06-1.61,2.33-2.84,3.82-3.7,1.49-.86,3.08-1.29,4.76-1.29.67,0,1.22.02,1.67.06.45.04.89.1,1.32.18l-.76,6.11c-.43-.12-.9-.2-1.41-.24-.51-.04-1.04-.06-1.59-.06-1.25,0-2.35.21-3.29.62-.94.41-1.73.95-2.38,1.62-.65.67-1.14,1.42-1.47,2.26-.33.84-.5,1.7-.5,2.56v17.93h-6.64v-30.56h6.46v4.53Z"></path><path class="cls-1" d="M1690.69,294.9c.43.65.97,1.17,1.62,1.56.65.39,1.4.66,2.26.79.86.14,1.78.21,2.76.21,2.23,0,3.84-.33,4.82-1,.98-.67,1.47-1.65,1.47-2.94,0-1.02-.3-1.88-.91-2.58-.61-.71-1.85-1.22-3.73-1.53-2.43-.43-4.57-.84-6.41-1.23-1.84-.39-3.39-.93-4.64-1.62-1.25-.69-2.19-1.57-2.82-2.65-.63-1.08-.94-2.54-.94-4.38,0-1.41.31-2.69.94-3.85.63-1.16,1.5-2.14,2.62-2.94,1.12-.8,2.45-1.42,4-1.85,1.55-.43,3.24-.64,5.08-.64,2.35,0,4.31.23,5.88.7,1.57.47,2.84,1.12,3.82,1.94.98.82,1.72,1.76,2.23,2.82.51,1.06.9,2.17,1.18,3.35l-6,.82c-.47-1.53-1.19-2.66-2.14-3.41-.96-.74-2.56-1.12-4.79-1.12-1.29,0-2.35.12-3.17.35-.82.23-1.48.53-1.97.88-.49.35-.82.74-1,1.18-.18.43-.27.86-.27,1.29,0,.67.08,1.22.23,1.65.16.43.44.78.85,1.06.41.27.97.51,1.67.7.71.2,1.59.39,2.65.59l3.82.65c2.04.35,3.73.8,5.09,1.35,1.35.55,2.43,1.23,3.23,2.03.8.8,1.36,1.73,1.68,2.79.31,1.06.47,2.23.47,3.53,0,2.78-1.06,5.02-3.17,6.73-2.12,1.7-5.33,2.56-9.64,2.56-1.76,0-3.46-.17-5.08-.5s-3.09-.89-4.38-1.67c-1.29-.78-2.34-1.83-3.14-3.15-.8-1.31-1.26-2.97-1.38-4.97h6.41c.12,1.02.39,1.85.82,2.5Z"></path><path class="cls-1" d="M1719.96,298.46c-2.63-2.82-3.94-6.82-3.94-11.99,0-2.43.34-4.64,1.03-6.64.69-2,1.68-3.7,2.97-5.11,1.29-1.41,2.88-2.51,4.76-3.29,1.88-.78,4.02-1.18,6.41-1.18s4.58.4,6.46,1.2c1.88.8,3.46,1.91,4.73,3.32,1.27,1.41,2.23,3.1,2.88,5.08.65,1.98.97,4.14.97,6.5,0,2.66-.37,5.01-1.12,7.02-.74,2.02-1.79,3.72-3.14,5.11-1.35,1.39-2.95,2.44-4.79,3.14-1.84.71-3.88,1.06-6.11,1.06-4.78,0-8.48-1.41-11.11-4.23ZM1737.33,294.37c1.31-1.94,1.97-4.59,1.97-7.96s-.66-5.96-1.97-7.88c-1.31-1.92-3.38-2.88-6.2-2.88s-4.89.97-6.2,2.91c-1.31,1.94-1.97,4.56-1.97,7.85s.64,5.98,1.91,7.94c1.27,1.96,3.36,2.94,6.26,2.94s4.89-.97,6.2-2.91Z"></path><path class="cls-1" d="M1759.99,275.65c1.37-1.88,2.91-3.25,4.61-4.11,1.71-.86,3.54-1.29,5.5-1.29,6.82,0,10.23,3.76,10.23,11.29v20.22h-6.7v-19.16c0-2.47-.45-4.2-1.35-5.2-.9-1-2.23-1.5-4-1.5-1.18,0-2.26.2-3.26.62-1,.41-1.85.97-2.56,1.67-.7.71-1.26,1.52-1.67,2.44-.41.92-.62,1.89-.62,2.91v18.22h-6.64v-30.56h6.46v4.47Z"></path><path class="cls-1" d="M1802.67,301.16c-1.65.9-3.64,1.35-6,1.35-1.45,0-2.8-.19-4.06-.56-1.25-.37-2.34-.93-3.26-1.67-.92-.74-1.65-1.7-2.17-2.85-.53-1.15-.79-2.52-.79-4.08,0-2.12.47-3.83,1.41-5.14.94-1.31,2.17-2.34,3.67-3.09,1.51-.74,3.2-1.26,5.09-1.56,1.88-.3,3.76-.48,5.64-.56l4.52-.23v-1.29c0-2.31-.56-3.91-1.67-4.79-1.12-.88-2.58-1.32-4.38-1.32-2.08,0-3.61.35-4.61,1.06-1,.71-1.66,1.72-1.97,3.06l-6.11-.65c.55-2.98,1.9-5.15,4.06-6.52,2.15-1.37,5.11-2.06,8.88-2.06,2.43,0,4.44.31,6.02.94,1.59.63,2.85,1.49,3.79,2.59s1.6,2.4,1.97,3.91c.37,1.51.56,3.16.56,4.97v19.1h-6.41v-4c-1.14,1.37-2.53,2.51-4.17,3.41ZM1797.58,288.11c-1.23.31-2.18.72-2.85,1.21-.67.49-1.11,1.06-1.32,1.71s-.32,1.34-.32,2.09c0,1.33.42,2.37,1.26,3.12.84.74,2.09,1.12,3.73,1.12,2.94,0,5.11-.74,6.52-2.23,1.41-1.49,2.12-3.51,2.12-6.05v-1.76l-4.29.18c-2,.12-3.61.33-4.85.64Z"></path><path class="cls-1" d="M1828,301.75h-6.7v-41.97h6.7v41.97Z"></path></g></g></g></svg>